<?xml version="1.0" standalone="no"?>
<!DOCTYPE svg PUBLIC "-//W3C//DTD SVG 20010904//EN"
 "http://www.w3.org/TR/2001/REC-SVG-20010904/DTD/svg10.dtd">
<svg version="1.0" xmlns="http://www.w3.org/2000/svg"
 width="512.000000pt" height="512.000000pt" viewBox="0 0 512.000000 512.000000"
 preserveAspectRatio="xMidYMid meet">

<g transform="translate(0.000000,512.000000) scale(0.100000,-0.100000)"
fill="#000000" stroke="none">
<path d="M2043 3976 c-63 -30 -166 -128 -333 -315 l-125 -141 -67 0 -68 0 0
80 0 80 -170 0 -170 0 0 -79 0 -78 -113 -5 c-100 -4 -121 -8 -172 -33 -71 -34
-130 -92 -159 -154 l-21 -46 0 -955 0 -955 22 -47 c30 -66 105 -143 172 -175
l56 -28 1680 0 1680 0 54 30 c61 34 110 89 143 161 l23 49 0 965 c0 960 0 965
-21 1011 -31 66 -78 114 -142 146 l-57 28 -350 5 -350 5 -136 150 c-163 181
-261 274 -314 300 -38 19 -66 20 -525 23 l-485 2 -52 -24z m1013 -161 c19 -14
110 -112 202 -218 93 -106 179 -201 191 -212 22 -19 41 -20 401 -25 363 -5
380 -6 407 -26 15 -11 36 -36 45 -55 17 -32 18 -98 18 -949 l0 -916 -22 -44
c-13 -25 -38 -55 -57 -67 l-34 -23 -721 1 -721 0 79 24 c102 30 127 61 90 113
-9 13 -26 22 -42 22 -25 0 -29 5 -43 59 l-15 60 65 27 c36 16 99 50 139 77
l74 50 41 -41 c33 -33 39 -44 29 -54 -32 -32 1 -98 50 -98 45 0 158 113 158
158 0 49 -66 82 -98 50 -10 -10 -21 -4 -53 28 l-40 41 53 74 c29 41 66 102 81
137 16 34 32 62 37 62 6 0 30 -5 55 -12 40 -11 45 -15 45 -40 0 -38 41 -65 78
-52 22 7 31 22 48 74 38 113 39 126 10 155 -32 31 -47 31 -85 0 -27 -24 -33
-25 -73 -15 l-43 11 0 164 0 164 43 11 c40 10 46 9 73 -15 38 -31 53 -31 85 0
29 29 28 42 -10 155 -17 52 -26 67 -48 74 -37 13 -78 -14 -78 -52 0 -25 -5
-29 -46 -40 -26 -7 -48 -11 -49 -10 -1 2 -19 38 -39 81 -19 44 -56 107 -80
141 l-45 63 35 34 c26 26 37 30 46 21 32 -32 98 1 98 50 0 45 -113 158 -158
158 -49 0 -82 -66 -50 -98 9 -9 5 -20 -21 -46 l-33 -34 -72 52 c-39 28 -103
66 -142 84 l-71 32 10 45 c9 40 13 45 38 45 17 0 34 8 43 22 38 54 9 87 -103
117 -76 21 -84 21 -107 7 -38 -25 -42 -62 -10 -95 25 -26 27 -32 17 -67 l-10
-39 -166 0 -166 0 -10 38 c-9 34 -7 41 15 68 32 38 32 53 1 85 -29 29 -42 28
-155 -10 -52 -17 -67 -26 -74 -48 -13 -37 14 -78 53 -78 25 0 29 -5 38 -47 6
-27 11 -48 10 -48 -26 -5 -150 -73 -206 -113 l-74 -53 -36 35 c-28 28 -33 38
-23 48 32 32 -1 98 -50 98 -45 0 -158 -113 -158 -158 0 -49 66 -82 98 -50 10
10 20 4 49 -24 l37 -37 -43 -61 c-23 -33 -58 -95 -78 -138 -19 -42 -36 -78
-38 -80 -1 -1 -25 3 -54 10 -46 10 -51 14 -51 39 0 39 -41 66 -78 53 -22 -7
-31 -22 -48 -74 -38 -113 -39 -126 -10 -155 32 -32 47 -31 85 1 29 24 32 25
76 12 l45 -13 2 -160 2 -160 -47 -13 c-46 -13 -49 -12 -78 12 -38 32 -53 33
-85 1 -29 -29 -28 -42 10 -155 17 -52 26 -67 48 -74 37 -13 78 14 78 53 0 25
5 29 51 39 28 7 54 12 59 12 5 0 21 -28 37 -62 15 -35 51 -95 79 -134 l52 -72
-44 -43 c-34 -34 -47 -40 -56 -31 -32 32 -98 -1 -98 -50 0 -45 113 -158 158
-158 49 0 82 66 50 98 -9 9 -2 22 31 56 l44 45 63 -45 c34 -24 96 -60 137 -79
l74 -34 -16 -61 c-14 -55 -18 -60 -43 -60 -16 0 -33 -9 -42 -22 -37 -52 -12
-83 90 -114 l79 -23 -711 2 -710 2 -36 24 c-19 13 -46 40 -59 59 l-24 36 -3
921 -2 922 22 34 c13 19 43 44 68 57 43 22 51 22 403 22 224 0 365 4 377 10
11 6 62 62 115 125 52 63 146 166 208 230 l113 115 458 0 459 0 33 -25z m-336
-791 c241 -57 449 -265 505 -508 20 -87 20 -235 0 -321 -55 -237 -254 -437
-500 -500 -78 -20 -252 -20 -330 0 -423 109 -646 575 -460 960 86 178 264 324
451 369 80 19 253 20 334 0z m6 -1552 c16 -54 16 -54 -10 -81 -32 -34 -33 -55
-1 -86 l24 -25 -184 0 -184 0 24 25 c32 31 31 46 -1 84 -25 30 -25 31 -10 83
l15 53 156 0 156 0 15 -53z"/>
<path d="M3520 3115 l0 -85 85 0 85 0 0 85 0 85 -85 0 -85 0 0 -85z"/>
<path d="M2511 2864 c-12 -15 -21 -33 -21 -41 0 -19 45 -63 65 -63 20 0 65 44
65 63 0 25 -41 67 -65 67 -14 0 -32 -11 -44 -26z"/>
<path d="M2180 2730 c-39 -39 -14 -100 43 -100 33 0 57 24 57 59 0 55 -61 80
-100 41z"/>
<path d="M2847 2732 c-37 -41 -11 -102 42 -102 55 0 80 61 41 100 -25 25 -62
26 -83 2z"/>
<path d="M2453 2671 c-186 -67 -265 -276 -172 -452 36 -67 68 -97 143 -137 44
-23 63 -27 136 -27 73 0 92 4 136 27 76 40 107 70 145 140 31 58 34 70 34 148
0 78 -3 90 -35 148 -18 35 -52 79 -76 98 -85 70 -208 92 -311 55z"/>
<path d="M2046 2399 c-15 -12 -26 -30 -26 -44 0 -24 42 -65 67 -65 19 0 63 45
63 65 0 20 -44 65 -63 65 -8 0 -26 -9 -41 -21z"/>
<path d="M2985 2395 c-14 -13 -25 -31 -25 -40 0 -20 44 -65 63 -65 25 0 67 41
67 65 0 24 -42 65 -67 65 -8 0 -25 -11 -38 -25z"/>
<path d="M2177 2062 c-23 -25 -21 -58 3 -82 39 -39 100 -14 100 43 0 52 -68
78 -103 39z"/>
<path d="M2846 2064 c-36 -35 -7 -104 42 -104 29 0 62 34 62 63 0 49 -70 76
-104 41z"/>
<path d="M2515 1925 c-14 -13 -25 -30 -25 -38 0 -25 41 -67 65 -67 24 0 65 42
65 67 0 19 -45 63 -65 63 -9 0 -27 -11 -40 -25z"/>
</g>
</svg>
