<?xml version="1.0" standalone="no"?>
<!DOCTYPE svg PUBLIC "-//W3C//DTD SVG 20010904//EN"
 "http://www.w3.org/TR/2001/REC-SVG-20010904/DTD/svg10.dtd">
<svg version="1.0" xmlns="http://www.w3.org/2000/svg"
 width="1016.000000pt" height="1016.000000pt" viewBox="0 0 1016.000000 1016.000000"
 preserveAspectRatio="xMidYMid meet">
<metadata>
Created by potrace 1.16, written by Peter Selinger 2001-2019
</metadata>
<g transform="translate(0.000000,1016.000000) scale(0.100000,-0.100000)"
fill="#000000" stroke="none">
<path d="M4652 6363 c-6 -2 -9 -9 -6 -15 4 -6 -1 -8 -12 -4 -25 8 -49 -8 -38
-25 6 -11 5 -11 -9 0 -10 8 -21 11 -24 7 -4 -4 -1 -11 7 -16 8 -6 11 -10 5
-11 -40 -6 -54 -5 -49 2 3 5 -3 6 -13 2 -31 -11 -35 -15 -22 -24 10 -6 9 -12
-5 -28 -21 -23 -50 -28 -43 -8 2 6 9 12 15 12 7 0 12 3 12 8 0 4 0 10 0 13 0
4 -6 1 -13 -5 -8 -6 -18 -7 -22 -3 -5 4 -5 1 -1 -5 4 -8 2 -13 -5 -13 -7 0 -5
-8 7 -22 17 -19 17 -21 2 -15 -11 4 -22 -1 -31 -13 -8 -11 -16 -18 -19 -15 -3
3 -5 -7 -6 -22 0 -51 -2 -63 -9 -61 -13 4 -49 -25 -62 -50 -10 -18 -15 -21
-26 -12 -12 10 -13 8 -10 -9 2 -12 -1 -21 -8 -21 -21 0 -56 -45 -47 -60 4 -7
6 -19 3 -26 -2 -6 0 -15 5 -18 5 -3 9 6 8 21 0 14 5 28 12 30 8 3 10 -2 6 -14
-5 -14 -4 -15 4 -3 6 8 8 19 4 25 -13 21 -10 33 9 30 11 -2 18 -1 15 3 -6 10
21 32 30 24 4 -4 4 -1 0 6 -7 11 6 17 28 13 5 -1 4 5 -4 13 -7 9 -11 16 -9 17
2 0 12 2 22 4 38 7 45 14 40 36 -4 14 -2 20 5 15 13 -8 44 22 37 35 -4 5 -2 9
4 9 5 0 13 -5 16 -10 7 -12 35 12 35 30 0 7 6 10 14 7 13 -5 49 27 40 36 -7 6
17 23 45 32 16 5 21 4 17 -4 -4 -6 -1 -11 8 -11 10 0 13 6 9 17 -5 13 -2 15
11 10 10 -4 15 -3 11 3 -3 6 -3 10 2 11 4 0 17 3 28 5 11 3 26 6 33 6 6 1 12
5 12 8 0 4 12 8 27 8 15 0 29 4 31 10 2 6 9 9 15 7 16 -6 43 12 33 22 -5 4
-11 3 -13 -3 -2 -7 -13 -10 -23 -7 -12 3 -20 0 -20 -6 0 -7 -4 -9 -10 -6 -5 3
-10 1 -10 -5 0 -6 -4 -8 -10 -5 -5 3 -19 1 -30 -5 -12 -6 -31 -13 -43 -16 -11
-2 -36 -11 -54 -19 -39 -19 -103 -29 -103 -16 0 7 34 18 78 23 6 1 12 5 12 10
0 4 6 8 13 8 8 0 26 14 40 30 26 29 26 34 -1 23z"/>
</g>
</svg>
